<svg xmlns="http://www.w3.org/2000/svg" version="1.1" xmlns:xlink="http://www.w3.org/1999/xlink" width="99.7" height="125.67"><svg id="SvgjsSvg1058" xmlns="http://www.w3.org/2000/svg" viewBox="0 0 99.7 125.67"><defs><style>.cls-1{fill:#fff;}.cls-2,.cls-3{fill:#20201e;}.cls-3{stroke:#fff;}.cls-4{fill:#c3151a;}</style></defs><path id="SvgjsPath1057" class="cls-4" d="m99.7,76.08V.03H.03v76.05c2.58,66.12,97.1,66.12,99.68,0Z"></path><path id="SvgjsPath1056" class="cls-1" d="m0,70.93l.06,5.95c0,15.69,7.63,30.76,20.72,39.89L99.67,34.98l.03-34.95-30.06-.03L0,70.93Z"></path><g id="SvgjsG1055"><g id="SvgjsG1054"><g id="SvgjsG1053"><path id="SvgjsPath1052" class="cls-2" d="m49.86,89.58l3.38-19.46c-2.38-.4-4.57-.4-6.95,0l3.57,19.46Z"></path></g><path class="cls-2" d="m65.75,89.58c0-.76-.07-1.51-.18-2.24l3.75-.54c-.4-2.38-.99-4.57-2.18-6.55l-3.31,1.79c-.68-1.25-1.54-2.4-2.52-3.42l2.85-2.73c-1.59-1.59-3.57-2.98-5.56-3.97l-1.71,3.46c-2.12-1.06-4.51-1.67-7.03-1.67h-.4c-2.32.05-4.52.64-6.5,1.61l-1.64-3.4c-1.99.99-3.97,2.38-5.56,3.97l2.75,2.67c-1.02,1.07-1.9,2.27-2.59,3.59l-3.54-1.89c-.99,1.99-1.79,4.37-2.18,6.55l4.1.58c-.09.72-.14,1.45-.13,2.2.03.76.11,1.48.21,2.19l-4.18.59c.4,2.18,1.19,4.57,2.18,6.55l3.6-1.92c.69,1.37,1.54,2.58,2.53,3.62l-2.75,2.67c1.59,1.59,3.57,2.98,5.56,3.97l1.65-3.42c1.28.6,2.64,1.03,4.03,1.27l-.72,3.94c2.38.4,4.57.4,6.95,0l-.67-3.89c1.5-.24,2.97-.67,4.35-1.31l1.69,3.41c1.99-.99,3.97-2.38,5.56-3.97l-2.77-2.65c.96-1,1.79-2.17,2.47-3.49l3.28,1.77c1.19-1.99,1.79-4.17,2.18-6.55l-3.79-.54c.11-.72.19-1.46.22-2.24Z"></path><g id="SvgjsG1051"><path id="SvgjsPath1050" class="cls-3" d="m38.75,85.61c-.99,2.58-.99,5.36,0,7.94l6.75-3.97-6.75-3.97Z"></path><path id="SvgjsPath1049" class="cls-3" d="m40.93,97.13c1.79,1.99,4.17,3.38,6.75,3.97v-7.94l-6.75,3.97Z"></path><path id="SvgjsPath1048" class="cls-3" d="m47.68,77.87c-2.58.6-4.96,1.99-6.75,3.97l6.75,3.77v-7.74Z"></path><path id="SvgjsPath1047" class="cls-3" d="m60.98,93.56c.99-2.58.99-5.36,0-7.94l-6.75,3.97,6.75,3.97Z"></path><path id="SvgjsPath1046" class="cls-3" d="m58.8,81.84c-1.79-1.99-4.17-3.38-6.75-3.97v7.94l6.75-3.97Z"></path><path id="SvgjsPath1045" class="cls-3" d="m52.05,101.1c2.58-.6,4.96-1.99,6.75-3.97l-6.75-3.97v7.94Z"></path></g></g><path class="cls-2" d="m71.31,17.11c-2.78.2-5.56.79-8.14,1.99-2.38,1.59-4.17,3.77-5.56,6.16-.4-1.59-.79-3.18-.99-4.77,0-1.79.2-3.57.79-5.16-3.57,2.18-4.77,4.57-5.96,8.54-1.39-5.96-.79-12.31,1.99-17.87,0,0-7.55,1.99-11.52,15.49-2.38,7.74-1.39,16.28,2.78,23.23-5.76-4.96-9.73-12.71-7.15-20.85-14.69,13.11-7.35,26.01,3.97,39.32h16.88c4.37-4.57,7.35-10.33,8.14-16.68.6-7.35-1.59-13.11-1.39-17.47.4-7.15,3.18-9.13,6.16-11.91Zm-23.43,45.27c.99-5.16-2.78-10.33-5.76-13.3-.79-.79-1.59-1.79-2.18-2.78,3.38,2.18,6.16,5.16,7.94,8.74.99,2.38,1.39,4.77,1.39,7.35h-1.39Zm9.33-7.74c1.99-6.16,1.99-12.51,0-18.66,4.17,5.56,4.17,13.11,0,18.66Z"></path><path id="SvgjsPath1044" class="cls-2" d="m53.84,68.93c.2,0,.2.2.4.4.2.99.4,1.79.4,2.78.2.99.6.99.99.99s.2-1.59.79-2.78c.2-.6.4-.99.6-1.59h1.79v-4.77h-17.47v4.77h1.79c.2.6.4.99.6,1.59.2.99.4,1.79.79,2.78.2,0,.79,0,.99-.99,0-.99.2-1.79.4-2.78,0-.2.2-.2.4-.4h7.55Z"></path></g></svg><style>@media (prefers-color-scheme: light) { :root { filter: none; } }
@media (prefers-color-scheme: dark) { :root { filter: none; } }
</style></svg>